<svg width="16" height="10" viewBox="0 0 16 10" fill="none" xmlns="http://www.w3.org/2000/svg">
<path fill-rule="evenodd" clip-rule="evenodd" d="M15 1H1V9H15V1ZM1 0C0.447715 0 0 0.447716 0 1V9C0 9.55229 0.447715 10 1 10H15C15.5523 10 16 9.55228 16 9V1C16 0.447715 15.5523 0 15 0H1Z" fill="#425466"/>
<path d="M13 1C13 2.10457 13.8954 3 15 3V1H13Z" fill="#425466"/>
<path d="M3 1C3 2.10457 2.10457 3 1 3V1H3Z" fill="#425466"/>
<path d="M13 9C13 7.89543 13.8954 7 15 7V9H13Z" fill="#425466"/>
<path d="M3 9C3 7.89543 2.10457 7 1 7V9H3Z" fill="#425466"/>
<path d="M10 5C10 6.10457 9.10457 7 8 7C6.89543 7 6 6.10457 6 5C6 3.89543 6.89543 3 8 3C9.10457 3 10 3.89543 10 5Z" fill="#425466"/>
</svg>
