<svg width="12" height="14" viewBox="0 0 12 14" fill="none" xmlns="http://www.w3.org/2000/svg">
<path d="M3.99996 2.33333C3.82315 2.33333 3.65358 2.40357 3.52855 2.5286C3.40353 2.65362 3.33329 2.82319 3.33329 3C3.33329 3.17681 3.40353 3.34638 3.52855 3.47141C3.65358 3.59643 3.82315 3.66667 3.99996 3.66667C4.17677 3.66667 4.34634 3.59643 4.47136 3.47141C4.59639 3.34638 4.66663 3.17681 4.66663 3C4.66663 2.82319 4.59639 2.65362 4.47136 2.5286C4.34634 2.40357 4.17677 2.33333 3.99996 2.33333ZM2.11329 2.33333C2.25103 1.94298 2.50645 1.60496 2.84436 1.36586C3.18227 1.12676 3.58602 0.998367 3.99996 0.998367C4.4139 0.998367 4.81765 1.12676 5.15556 1.36586C5.49347 1.60496 5.74889 1.94298 5.88663 2.33333H10.6666C10.8434 2.33333 11.013 2.40357 11.138 2.5286C11.2631 2.65362 11.3333 2.82319 11.3333 3C11.3333 3.17681 11.2631 3.34638 11.138 3.47141C11.013 3.59643 10.8434 3.66667 10.6666 3.66667H5.88663C5.74889 4.05702 5.49347 4.39505 5.15556 4.63414C4.81765 4.87324 4.4139 5.00164 3.99996 5.00164C3.58602 5.00164 3.18227 4.87324 2.84436 4.63414C2.50645 4.39505 2.25103 4.05702 2.11329 3.66667H1.33329C1.15648 3.66667 0.986912 3.59643 0.861888 3.47141C0.736864 3.34638 0.666626 3.17681 0.666626 3C0.666626 2.82319 0.736864 2.65362 0.861888 2.5286C0.986912 2.40357 1.15648 2.33333 1.33329 2.33333H2.11329ZM7.99996 6.33334C7.82315 6.33334 7.65358 6.40357 7.52855 6.5286C7.40353 6.65362 7.33329 6.82319 7.33329 7C7.33329 7.17681 7.40353 7.34638 7.52855 7.47141C7.65358 7.59643 7.82315 7.66667 7.99996 7.66667C8.17677 7.66667 8.34634 7.59643 8.47136 7.47141C8.59639 7.34638 8.66663 7.17681 8.66663 7C8.66663 6.82319 8.59639 6.65362 8.47136 6.5286C8.34634 6.40357 8.17677 6.33334 7.99996 6.33334ZM6.11329 6.33334C6.25103 5.94298 6.50645 5.60496 6.84436 5.36586C7.18227 5.12676 7.58602 4.99837 7.99996 4.99837C8.4139 4.99837 8.81765 5.12676 9.15556 5.36586C9.49347 5.60496 9.74889 5.94298 9.88663 6.33334H10.6666C10.8434 6.33334 11.013 6.40357 11.138 6.5286C11.2631 6.65362 11.3333 6.82319 11.3333 7C11.3333 7.17681 11.2631 7.34638 11.138 7.47141C11.013 7.59643 10.8434 7.66667 10.6666 7.66667H9.88663C9.74889 8.05702 9.49347 8.39505 9.15556 8.63414C8.81765 8.87324 8.4139 9.00164 7.99996 9.00164C7.58602 9.00164 7.18227 8.87324 6.84436 8.63414C6.50645 8.39505 6.25103 8.05702 6.11329 7.66667H1.33329C1.15648 7.66667 0.986912 7.59643 0.861888 7.47141C0.736864 7.34638 0.666626 7.17681 0.666626 7C0.666626 6.82319 0.736864 6.65362 0.861888 6.5286C0.986912 6.40357 1.15648 6.33334 1.33329 6.33334H6.11329ZM3.99996 10.3333C3.82315 10.3333 3.65358 10.4036 3.52855 10.5286C3.40353 10.6536 3.33329 10.8232 3.33329 11C3.33329 11.1768 3.40353 11.3464 3.52855 11.4714C3.65358 11.5964 3.82315 11.6667 3.99996 11.6667C4.17677 11.6667 4.34634 11.5964 4.47136 11.4714C4.59639 11.3464 4.66663 11.1768 4.66663 11C4.66663 10.8232 4.59639 10.6536 4.47136 10.5286C4.34634 10.4036 4.17677 10.3333 3.99996 10.3333ZM2.11329 10.3333C2.25103 9.94298 2.50645 9.60496 2.84436 9.36586C3.18227 9.12677 3.58602 8.99837 3.99996 8.99837C4.4139 8.99837 4.81765 9.12677 5.15556 9.36586C5.49347 9.60496 5.74889 9.94298 5.88663 10.3333H10.6666C10.8434 10.3333 11.013 10.4036 11.138 10.5286C11.2631 10.6536 11.3333 10.8232 11.3333 11C11.3333 11.1768 11.2631 11.3464 11.138 11.4714C11.013 11.5964 10.8434 11.6667 10.6666 11.6667H5.88663C5.74889 12.057 5.49347 12.395 5.15556 12.6341C4.81765 12.8732 4.4139 13.0016 3.99996 13.0016C3.58602 13.0016 3.18227 12.8732 2.84436 12.6341C2.50645 12.395 2.25103 12.057 2.11329 11.6667H1.33329C1.15648 11.6667 0.986912 11.5964 0.861888 11.4714C0.736864 11.3464 0.666626 11.1768 0.666626 11C0.666626 10.8232 0.736864 10.6536 0.861888 10.5286C0.986912 10.4036 1.15648 10.3333 1.33329 10.3333H2.11329Z" fill="#FCFCFC"/>
</svg>
