<svg width="12" height="16" viewBox="0 0 12 16" fill="none" xmlns="http://www.w3.org/2000/svg">
<path fill-rule="evenodd" clip-rule="evenodd" d="M10.1658 8.93977C10.6952 7.86708 11 6.86191 11 6C11 3.23858 8.76142 1 6 1C3.23858 1 1 3.23858 1 6C1 6.86191 1.3048 7.86708 1.83423 8.93977C2.35825 10.0015 3.06754 11.0601 3.79425 12.01C4.51868 12.957 5.24558 13.7768 5.79232 14.3605C5.86497 14.438 5.93434 14.5113 6 14.5801C6.06566 14.5113 6.13503 14.438 6.20768 14.3605C6.75442 13.7768 7.48132 12.957 8.20575 12.01C8.93246 11.0601 9.64175 10.0015 10.1658 8.93977ZM6 16C6 16 12 10.3137 12 6C12 2.68629 9.31371 0 6 0C2.68629 0 0 2.68629 0 6C0 10.3137 6 16 6 16Z" fill="#425466"/>
<path fill-rule="evenodd" clip-rule="evenodd" d="M6 8C7.10457 8 8 7.10457 8 6C8 4.89543 7.10457 4 6 4C4.89543 4 4 4.89543 4 6C4 7.10457 4.89543 8 6 8ZM6 9C7.65685 9 9 7.65685 9 6C9 4.34315 7.65685 3 6 3C4.34315 3 3 4.34315 3 6C3 7.65685 4.34315 9 6 9Z" fill="#425466"/>
</svg>
