<svg width="16" height="16" viewBox="0 0 16 16" fill="none" xmlns="http://www.w3.org/2000/svg">
<path fill-rule="evenodd" clip-rule="evenodd" d="M7.64645 1.14645C7.84171 0.951184 8.15829 0.951184 8.35355 1.14645L14.3536 7.14645C14.4473 7.24021 14.5 7.36739 14.5 7.5V14.5C14.5 14.7761 14.2761 15 14 15H9.5C9.22386 15 9 14.7761 9 14.5V10.5H7V14.5C7 14.7761 6.77614 15 6.5 15H2C1.72386 15 1.5 14.7761 1.5 14.5V7.5C1.5 7.36739 1.55268 7.24021 1.64645 7.14645L7.64645 1.14645ZM2.5 7.70711V14H6V10C6 9.72386 6.22386 9.5 6.5 9.5H9.5C9.77614 9.5 10 9.72386 10 10V14H13.5V7.70711L8 2.20711L2.5 7.70711Z" fill="#425466"/>
<path fill-rule="evenodd" clip-rule="evenodd" d="M13 2.5V6L11 4V2.5C11 2.22386 11.2239 2 11.5 2H12.5C12.7761 2 13 2.22386 13 2.5Z" fill="#425466"/>
</svg>
