<svg width="18" height="19" viewBox="0 0 18 19" fill="none" xmlns="http://www.w3.org/2000/svg">
<path d="M15.6665 13.1667H17.3332V14.8333H0.666504V13.1667H2.33317V7.33332C2.33317 5.56521 3.03555 3.86952 4.28579 2.61928C5.53604 1.36904 7.23173 0.666656 8.99984 0.666656C10.7679 0.666656 12.4636 1.36904 13.7139 2.61928C14.9641 3.86952 15.6665 5.56521 15.6665 7.33332V13.1667ZM13.9998 13.1667V7.33332C13.9998 6.00724 13.4731 4.73547 12.5354 3.79779C11.5977 2.86011 10.3259 2.33332 8.99984 2.33332C7.67376 2.33332 6.40199 2.86011 5.4643 3.79779C4.52662 4.73547 3.99984 6.00724 3.99984 7.33332V13.1667H13.9998ZM6.49984 16.5H11.4998V18.1667H6.49984V16.5Z" fill="#727272"/>
</svg>
