<svg width="16" height="17" viewBox="0 0 16 17" fill="none" xmlns="http://www.w3.org/2000/svg">
<path fill-rule="evenodd" clip-rule="evenodd" d="M13.5 1.5C12.6716 1.5 12 2.17157 12 3C12 3.82843 12.6716 4.5 13.5 4.5C14.3284 4.5 15 3.82843 15 3C15 2.17157 14.3284 1.5 13.5 1.5ZM11 3C11 1.61929 12.1193 0.5 13.5 0.5C14.8807 0.5 16 1.61929 16 3C16 4.38071 14.8807 5.5 13.5 5.5C12.7411 5.5 12.0611 5.16182 11.6026 4.62792L4.88498 7.7482C4.95971 7.98549 5 8.23804 5 8.5C5 8.76196 4.95971 9.01451 4.88498 9.2518L11.6026 12.3721C12.0611 11.8382 12.7411 11.5 13.5 11.5C14.8807 11.5 16 12.6193 16 14C16 15.3807 14.8807 16.5 13.5 16.5C12.1193 16.5 11 15.3807 11 14C11 13.738 11.0403 13.4855 11.115 13.2482L4.39739 10.1279C3.93889 10.6618 3.25894 11 2.5 11C1.11929 11 0 9.88071 0 8.5C0 7.11929 1.11929 6 2.5 6C3.25894 6 3.93889 6.33818 4.39739 6.87208L11.115 3.7518C11.0403 3.51451 11 3.26196 11 3ZM2.5 7C1.67157 7 1 7.67157 1 8.5C1 9.32843 1.67157 10 2.5 10C3.32843 10 4 9.32843 4 8.5C4 7.67157 3.32843 7 2.5 7ZM13.5 12.5C12.6716 12.5 12 13.1716 12 14C12 14.8284 12.6716 15.5 13.5 15.5C14.3284 15.5 15 14.8284 15 14C15 13.1716 14.3284 12.5 13.5 12.5Z" fill="#425466"/>
</svg>
