<svg width="10" height="10" viewBox="0 0 10 10" fill="none" xmlns="http://www.w3.org/2000/svg">
<path fill-rule="evenodd" clip-rule="evenodd" d="M2.28367 0.830306C2.12715 0.629059 1.82966 0.610538 1.64938 0.790817L1.00318 1.43702C0.701003 1.73919 0.589919 2.16728 0.721939 2.54279C1.25211 4.05077 2.1201 5.46669 3.3267 6.6733C4.53331 7.87991 5.94923 8.74789 7.45721 9.27806C7.83272 9.41008 8.26081 9.299 8.56298 8.99683L9.20918 8.35062C9.38946 8.17034 9.37094 7.87286 9.16969 7.71633L7.72833 6.59527C7.62552 6.5153 7.49165 6.48705 7.3653 6.51864L5.99713 6.86068C5.62551 6.95358 5.23239 6.84469 4.96153 6.57383L3.42617 5.03847C3.15531 4.76761 3.04642 4.37449 3.13933 4.00287L3.48137 2.6347C3.51296 2.50835 3.4847 2.37449 3.40474 2.27168L2.28367 0.830306ZM1.17798 0.319422C1.6418 -0.144399 2.40718 -0.0967482 2.80989 0.421022L3.93096 1.86239C4.13669 2.1269 4.20939 2.4713 4.12811 2.79639L3.78607 4.16456C3.74996 4.309 3.79228 4.4618 3.89756 4.56708L5.43293 6.10244C5.5382 6.20772 5.691 6.25004 5.83544 6.21393L7.20361 5.87189C7.5287 5.79062 7.8731 5.86331 8.13761 6.06904L9.57898 7.19011C10.0967 7.59282 10.1444 8.3582 9.68058 8.82202L9.03438 9.46822C8.57205 9.93054 7.88055 10.1336 7.23609 9.90698C5.63596 9.34441 4.13399 8.42338 2.85531 7.14469C1.57662 5.86601 0.655593 4.36404 0.0930238 2.76391C-0.133551 2.11945 0.0694563 1.42795 0.531781 0.965624L1.17798 0.319422Z" fill="#425466"/>
</svg>
