<svg width="10" height="10" viewBox="0 0 10 10" fill="none" xmlns="http://www.w3.org/2000/svg">
<path d="M7.93758 2.04584C7.55558 1.65997 7.10057 1.35403 6.5991 1.14586C6.09762 0.937685 5.55971 0.831446 5.01675 0.833338C2.74175 0.833338 0.887581 2.6875 0.887581 4.9625C0.887581 5.69167 1.07925 6.40001 1.43758 7.02501L0.854248 9.16667L3.04175 8.59167C3.64591 8.92084 4.32508 9.09584 5.01675 9.09584C7.29175 9.09584 9.14592 7.24167 9.14592 4.96667C9.14592 3.8625 8.71675 2.825 7.93758 2.04584ZM5.01675 8.39584C4.40008 8.39584 3.79591 8.22917 3.26675 7.91667L3.14175 7.84167L1.84175 8.18334L2.18758 6.91667L2.10425 6.78751C1.76164 6.24041 1.57972 5.60802 1.57925 4.9625C1.57925 3.07084 3.12091 1.52917 5.01258 1.52917C5.92925 1.52917 6.79175 1.8875 7.43758 2.5375C7.75737 2.85582 8.01079 3.23445 8.18316 3.65143C8.35553 4.06842 8.44343 4.51547 8.44175 4.96667C8.45008 6.85834 6.90841 8.39584 5.01675 8.39584ZM6.90008 5.82917C6.79591 5.77917 6.28758 5.52917 6.19591 5.49167C6.10008 5.45834 6.03341 5.44167 5.96258 5.54167C5.89175 5.64584 5.69591 5.87917 5.63758 5.94584C5.57925 6.01667 5.51675 6.025 5.41258 5.97084C5.30841 5.92084 4.97508 5.80834 4.58341 5.45834C4.27508 5.18334 4.07091 4.84584 4.00841 4.74167C3.95008 4.6375 4.00008 4.58334 4.05425 4.52917C4.10008 4.48334 4.15841 4.40834 4.20841 4.35C4.25841 4.29167 4.27925 4.24584 4.31258 4.17917C4.34591 4.10834 4.32925 4.05 4.30425 4.00001C4.27925 3.95001 4.07091 3.44167 3.98758 3.23334C3.90425 3.03334 3.81675 3.05834 3.75425 3.05417H3.55425C3.48341 3.05417 3.37508 3.07917 3.27925 3.18334C3.18758 3.2875 2.92091 3.5375 2.92091 4.04584C2.92091 4.55417 3.29175 5.04584 3.34175 5.1125C3.39175 5.18334 4.07091 6.22501 5.10425 6.67084C5.35008 6.77917 5.54175 6.84167 5.69175 6.88751C5.93758 6.96667 6.16258 6.95417 6.34175 6.92917C6.54175 6.9 6.95425 6.67917 7.03758 6.4375C7.12508 6.19584 7.12508 5.99167 7.09591 5.94584C7.06675 5.9 7.00425 5.87917 6.90008 5.82917Z" fill="#FCFCFC"/>
</svg>
